<svg xmlns="http://www.w3.org/2000/svg" xml:space="preserve" style="fill-rule:evenodd;clip-rule:evenodd;stroke-linejoin:round;stroke-miterlimit:2" viewBox="0 0 127 87"><path d="M4.004 64.033s8.651-5.663 13.758-10.988c1.223-1.274 2.239-2.519 2.833-3.656.286-.548.481-1.046.462-1.499-.018-.448-.403-.871-.881-1.364-.734-.757-1.763-1.527-2.952-2.292-5.96-3.839-15.778-7.417-15.778-7.417a1.568 1.568 0 0 1 .558-3.041s10.38.137 17.508-1.251c1.705-.332 3.214-.743 4.303-1.288.484-.242.878-.475 1.072-.793.911-1.484.515-3.693-.244-6.065-2.083-6.51-7.604-14.028-7.604-14.028a1.568 1.568 0 0 1 2.258-2.141s8.073 6.611 14.244 10.169c1.485.857 2.848 1.535 3.938 1.861.419.125.756.241 1.006.165.069-.021.102-.101.156-.171a3.03 3.03 0 0 0 .328-.571c.339-.736.586-1.712.782-2.813 1.013-5.703.507-14.538.507-14.538a1.569 1.569 0 0 1 2.849-.99s6.087 8.658 11.226 13.622c1.221 1.18 2.375 2.147 3.37 2.682.362.195.659.369.922.328.559-.086 1.073-.487 1.588-.993.695-.682 1.342-1.579 1.931-2.533 1.89-3.061 3.159-6.718 3.159-6.718a1.567 1.567 0 0 1 2.946-.046s1.559 4.085 3.851 7.327c.71 1.003 1.487 1.927 2.318 2.588.623.494 1.258.853 1.929.837 2.354-.055 5.285-1.323 8.262-2.997C92.014 11.253 99.573 4.42 99.573 4.42a1.57 1.57 0 0 1 2.502 1.76s-3.462 8.411-4.239 15.022c-.155 1.32-.203 2.563-.072 3.636.102.841.293 1.565.707 2.065.326.393.871.707 1.542 1.007 1.301.583 3.029 1.029 4.952 1.387 7.891 1.469 18.924 1.359 18.924 1.359a1.569 1.569 0 0 1 .478 3.066s-9.033 2.788-14.842 5.825c-1.386.724-2.582 1.453-3.379 2.168-.316.283-.579.519-.655.782-.086.3.103.645.308 1.058.367.738.958 1.547 1.67 2.388 3.656 4.317 10.403 9.257 10.403 9.257a1.567 1.567 0 0 1-1.234 2.802s-11.484-2.357-17.626-.068c-.6.223-1.07.798-1.513 1.497-.589.929-1.072 2.091-1.477 3.306-1.29 3.875-1.758 8.293-1.758 8.293a1.569 1.569 0 0 1-2.512 1.08s-6.21-4.753-11.353-7c-1.017-.444-1.986-.789-2.845-.956-.598-.116-1.12-.175-1.517-.006-.426.18-.804.636-1.212 1.206-.559.781-1.096 1.782-1.609 2.895-2.549 5.539-4.423 13.764-4.423 13.764a1.568 1.568 0 0 1-3.007.174s-2.125-6.021-5.503-10.778c-1.069-1.505-2.261-2.886-3.564-3.869-1.114-.841-2.299-1.393-3.56-1.349-.557.02-1.215.271-1.962.641-1.396.693-3.006 1.817-4.69 3.157-6.843 5.443-14.79 14.397-14.79 14.397a1.57 1.57 0 0 1-2.734-1.185s.671-7.216-.349-12.539c-.363-1.889-.843-3.554-1.87-4.274-1.114-.78-3.36-.959-5.929-.987-6.789-.075-15.701 1.488-15.701 1.488a1.568 1.568 0 0 1-1.13-2.856Z" style="fill:#fff"/><path d="M4.864 65.344s18-11.8 17.76-17.52c-.21-5.018-20.64-12.48-20.64-12.48s21.571.272 24.24-4.08c3.68-6-7.92-21.84-7.92-21.84s16.72 13.68 20.64 12.48c3.92-1.2 2.88-19.68 2.88-19.68s12.64 17.96 17.04 17.28c4.228-.653 7.92-11.28 7.92-11.28s4.541 11.879 9.6 11.76c8.52-.2 24.24-14.4 24.24-14.4s-7.24 17.64-3.36 22.32c3.764 4.539 26.64 4.32 26.64 4.32s-18.76 5.8-19.92 9.84c-1.16 4.04 12.96 14.4 12.96 14.4s-12.04-2.4-18.48 0c-4.403 1.641-5.76 14.4-5.76 14.4s-13.04-9.96-17.28-8.16c-4.24 1.8-8.16 18.96-8.16 18.96s-6.12-17.32-14.16-17.04c-6.123.213-22.56 18.72-22.56 18.72s1.4-15.24-2.88-18.24c-4.28-3-22.8.24-22.8.24Z" style="fill:#ed1a45"/><path d="M4.864 65.344s18-11.8 17.76-17.52c-.21-5.018-20.64-12.48-20.64-12.48s21.571.272 24.24-4.08c3.68-6-7.92-21.84-7.92-21.84s16.72 13.68 20.64 12.48c3.92-1.2 2.88-19.68 2.88-19.68s12.64 17.96 17.04 17.28c4.228-.653 7.92-11.28 7.92-11.28s4.541 11.879 9.6 11.76c8.52-.2 24.24-14.4 24.24-14.4s-7.24 17.64-3.36 22.32c3.764 4.539 26.64 4.32 26.64 4.32s-18.76 5.8-19.92 9.84c-1.16 4.04 12.96 14.4 12.96 14.4s-12.04-2.4-18.48 0c-4.403 1.641-5.76 14.4-5.76 14.4s-13.04-9.96-17.28-8.16c-4.24 1.8-8.16 18.96-8.16 18.96s-6.12-17.32-14.16-17.04c-6.123.213-22.56 18.72-22.56 18.72s1.4-15.24-2.88-18.24c-4.28-3-22.8.24-22.8.24Zm5.941-2.358c3.067-.362 6.802-.689 10.063-.653 3.34.037 6.21.528 7.657 1.543 1.531 1.073 2.582 3.394 3.122 6.209.571 2.978.651 6.511.598 9.201 2.996-3.175 7.903-8.159 12.352-11.698 3.292-2.618 6.42-4.392 8.455-4.463 2.815-.098 5.485 1.546 7.765 4.045 2.611 2.863 4.734 6.828 6.113 9.806.831-2.961 2.064-6.893 3.499-10.01.731-1.588 1.521-2.972 2.329-3.957.673-.822 1.385-1.391 2.08-1.686.717-.304 1.609-.406 2.63-.286 1.209.142 2.646.6 4.159 1.261 3.549 1.551 7.582 4.227 9.949 5.893.391-2.309 1.124-5.775 2.33-8.5 1.009-2.278 2.407-4.026 4.034-4.632 3.825-1.426 9.541-1.251 13.76-.835-2.183-1.829-4.744-4.139-6.573-6.298-1.089-1.286-1.924-2.536-2.348-3.616-.39-.997-.454-1.902-.237-2.66.201-.698.717-1.468 1.556-2.221.949-.849 2.357-1.739 4.006-2.601 2.272-1.188 5.021-2.34 7.561-3.314-3.564-.188-7.72-.541-11.262-1.2-3.87-.721-7.022-1.918-8.294-3.452-1.359-1.641-1.719-4.618-1.32-8.018.409-3.479 1.519-7.434 2.528-10.52-2.972 2.38-7.112 5.467-11.204 7.769-3.479 1.957-6.944 3.326-9.694 3.391-1.9.044-3.812-1.138-5.46-2.991-1.676-1.884-3.116-4.438-4.112-6.457-.804 1.776-1.919 3.942-3.212 5.649-1.357 1.793-2.957 3.057-4.542 3.302-.783.121-1.761-.077-2.843-.659-1.189-.639-2.589-1.767-4.049-3.178-3.054-2.95-6.436-7.161-8.756-10.205.012 3.151-.108 7.261-.673 10.442-.304 1.708-.748 3.167-1.325 4.156-.562.964-1.281 1.556-2.064 1.795-.682.209-1.638.183-2.781-.158-1.269-.379-2.865-1.146-4.594-2.143-2.546-1.468-5.408-3.441-7.923-5.277 1.337 2.401 2.659 5.117 3.48 7.684 1.076 3.362 1.228 6.501-.062 8.604-.441.719-1.222 1.386-2.315 1.933-1.291.646-3.07 1.163-5.09 1.556-3.36.654-7.417.983-10.841 1.148 3.144 1.383 6.803 3.149 9.628 4.969 1.717 1.106 3.135 2.245 4.02 3.324.782.953 1.181 1.908 1.218 2.783.038.91-.233 1.947-.808 3.049-.705 1.35-1.887 2.846-3.339 4.359-2.664 2.778-6.255 5.648-9.171 7.817Z"/><path d="m44.714 52.938-.187.253c-1.306 1.707-2.923 3.277-4.936 4.719-2.452 1.701-5.357 2.728-8.672 3.076-.546.057-1.05.11-1.558.121.434-5.562.8-12.983 1.092-22.307l.154-6.212c.784-.209 2.339-.755 4.59-1.543 1.962-.715 3.568-1.181 4.771-1.435.458-.091.919-.139 1.381-.188 3.484-.366 5.337.712 5.555 3.193.413 3.521-1.399 7.276-5.394 11.26 2.711-.455 4.385.133 4.986 1.81l.009.027a184.06 184.06 0 0 0 2.629-13.901l9.17-2.531c-.369 5.634-.155 12.117.594 19.431a124.15 124.15 0 0 0 2.863-17.606l7.205-1.966.151 11.379 1.749-10.697 6.911-1.967c-.109 6.737.103 12.787.634 18.151.145 1.063.253 2.096.365 3.162l-6.149 1.756-.314-13.549L69.87 52.65l-3.372.844.113-19.112-2.633 17.189-6.206 1.534c.124-.451.246-.901.364-1.352l-5.34 1.843.048-3.891-1.962.598-.393 2.784-6.259 1.638c.165-.598.326-1.193.484-1.787ZM51.442 46l1.52-.454.17-11.739-.033.004L51.442 46Zm-14.98 2.734-.243 4.142c3.658-1.531 5.41-3.03 5.214-4.495-.053-.503-.542-.707-1.465-.61-.797.084-1.992.422-3.506.963Zm1.104-10.894-.356 2.668-.267 2.702c1.802-1.42 3.042-2.951 3.718-4.592.132-.354.185-.656.205-.87-.048-.462-.406-.637-1.119-.562-.546.058-1.246.259-2.181.654Zm54.726 5.481a3.7 3.7 0 0 1 2.231.559c.775.446 1.111 1.089 1.048 1.893-.125 1.109-.781 2.098-2.002 2.928-1.014.654-2.044.998-3.167 1.064-.89.047-1.612-.087-2.201-.441-.695-.478-.992-1.118-.93-1.923.087-1.111.704-2.104 1.89-2.975a6.027 6.027 0 0 1 3.131-1.105Zm-.874-4.116 6.775-18.169 7.485 1.894c-2.311 3.443-3.988 6.165-5.105 8.122a75.564 75.564 0 0 0-4.115 8.777l-5.04-.624Zm-5.556-6.488c-.103.566-.139 1.158-.178 1.717l-.215 1.688 5.242-1.694.129 4.329a84.347 84.347 0 0 0-5.791 1.751 122.402 122.402 0 0 0-.31 8.228l-5.089 1.906 1.276-22.336L91.2 25.724l.242 5.721a66.971 66.971 0 0 0-5.58 1.272Z" style="fill:#fbc608"/><path d="M29.115 62.274c-.074-.078-.393-.388-.48-.48a1 1 0 0 1-.271-.764c.433-5.55.798-12.956 1.09-22.258l.153-6.208c.011-.444.313-.827.741-.942.772-.206 2.3-.744 4.51-1.518 2.016-.735 3.667-1.212 4.904-1.473l.012-.002c.487-.097.979-.15 1.471-.201 2.454-.258 4.201.185 5.276 1.138.144.128.278.265.402.412l.078.068a3.94 3.94 0 0 1 1.129 1.723l.015-.105a1 1 0 0 1 .723-.816l9.17-2.532c.312-.086.647-.015.898.189.118.096.416.428.48.48a1 1 0 0 1 .366.841c-.198 3.019-.226 6.283-.093 9.791.46-2.859.819-5.726 1.076-8.602a.998.998 0 0 1 .733-.875l7.204-1.966c.299-.081.618-.02.865.166.132.1.425.439.48.48.08.06.149.131.207.21a.999.999 0 0 1 .338-.171l6.911-1.967a.997.997 0 0 1 .882.169c.129.098.423.435.48.48a.998.998 0 0 1 .391.809c-.056 3.522-.025 6.856.094 10l.577-10.101c.025-.436.331-.806.755-.913l10.274-2.582a1 1 0 0 1 .842.169c.134.099.426.439.48.48.241.18.389.459.401.759l.243 5.721a1 1 0 0 1-.817 1.025 66.82 66.82 0 0 0-4.865 1.083c-.019.174-.033.349-.046.522l3.21-1.037c.299-.096.626-.047.884.135.143.101.431.446.48.48.106.125.264.248.337.41l5.151-13.815a1 1 0 0 1 1.182-.62l7.485 1.894c.292.074 1.076.848 1.169 1.092a.999.999 0 0 1-.104.915c-2.291 3.413-3.954 6.112-5.062 8.053a74.412 74.412 0 0 0-4.057 8.655 1.001 1.001 0 0 1-1.054.626l-5.04-.624a1.008 1.008 0 0 1-.647-.354c-1.636.44-3.184.913-4.646 1.399a120.612 120.612 0 0 0-.263 7.497 1 1 0 0 1-.65.933l-5.089 1.907a.999.999 0 0 1-.943-.132c-.136-.1-.427-.441-.48-.48-.14-.18-.334-.358-.385-.593l-5.29 1.511a1.003 1.003 0 0 1-.868-.156c-.2-.159-.783-.792-.845-.997l-.332 2.076a1 1 0 0 1-.744.812l-3.372.844a1 1 0 0 1-.861-.184c-.124-.097-.42-.419-.48-.48-.182-.185-.384-.483-.382-.792l.01-1.688-.062.403a1 1 0 0 1-.748.819l-6.206 1.534a1.001 1.001 0 0 1-.956-.273c-.079-.081-.38-.382-.461-.461l-3.473 1.199a1 1 0 0 1-.912-.135c-.139-.1-.429-.443-.48-.48a1.004 1.004 0 0 1-.334-.417.998.998 0 0 1-.653.546l-6.26 1.637a.995.995 0 0 1-.712-.079 25.135 25.135 0 0 1-3.597 3.11l-.013.009c-2.584 1.792-5.643 2.881-9.138 3.249-.574.06-1.105.115-1.64.126a.996.996 0 0 1-.748-.313ZM46.7 39.999a21.01 21.01 0 0 1-2.027 2.901c.498.121.935.307 1.311.552.251-1.158.49-2.309.716-3.453Zm-.492-9.313c-.855-1.089-2.475-1.514-4.859-1.264-.462.049-.924.094-1.381.188-1.205.246-2.809.72-4.771 1.435-2.251.788-3.806 1.334-4.59 1.543l-.154 6.212c-.292 9.324-.658 16.745-1.092 22.307.173-.003.345-.012.519-.024.337-.023.679-.059 1.039-.097 3.315-.348 6.22-1.375 8.672-3.076 2.013-1.442 3.63-3.012 4.936-4.719l.187-.253c-.145.546-.294 1.094-.445 1.643l-.039.144 6.259-1.638.393-2.784 1.962-.598-.048 3.891 5.34-1.843a93.34 93.34 0 0 1-.364 1.352l6.206-1.534 2.633-17.189-.113 19.112 3.372-.844 2.443-15.276.314 13.549 6.149-1.756c-.112-1.066-.22-2.099-.365-3.162-.515-5.199-.729-11.043-.644-17.532l.01-.619-6.911 1.967-1.749 10.697-.151-11.379-7.205 1.966a123.867 123.867 0 0 1-2.863 17.606c-.722-7.046-.947-13.32-.632-18.808l.038-.623-9.17 2.531a183.178 183.178 0 0 1-2.559 13.591l-.07.31-.009-.027a2.952 2.952 0 0 0-.427-.798c-.671-.876-1.836-1.252-3.483-1.141-.338.022-.697.066-1.076.129 3.995-3.984 5.807-7.739 5.394-11.26-.069-.783-.301-1.427-.696-1.929Zm6.754 14.86-1.52.454 1.542-11.342.113.115-.035-.685.023-.169.035.673-.158 10.954Zm-15.445-2.809c-.185.159-.376.316-.574.473l.267-2.702.356-2.668c.935-.395 1.635-.596 2.181-.654.679-.071 1.036.084 1.11.497a.637.637 0 0 1 .009.065c-.02.214-.073.516-.205.87-.602 1.46-1.65 2.834-3.144 4.119Zm-.777 9.915c-.169.075-.343.149-.521.224l.243-4.142c1.514-.541 2.709-.879 3.506-.963.872-.091 1.356.085 1.452.528l.013.082c.166 1.396-1.39 2.818-4.693 4.271Zm68.733-29.416.205-.306-7.485-1.894-6.775 18.169 5.04.624a75.564 75.564 0 0 1 4.115-8.777c1.083-1.898 2.694-4.517 4.9-7.816Zm-14.031 8.209-.242-5.721-10.274 2.582-1.276 22.336 5.089-1.906c.008-2.711.114-5.432.31-8.228a84.347 84.347 0 0 1 5.791-1.751l-.129-4.329-5.242 1.694.215-1.688c.039-.559.075-1.151.178-1.717a66.971 66.971 0 0 1 5.58-1.272Zm-4.078 18.5c-.826-.677-1.173-1.551-1.09-2.622.107-1.373.829-2.626 2.295-3.703l.017-.012a7.034 7.034 0 0 1 3.647-1.286h.002a4.697 4.697 0 0 1 2.806.702c.401.234.721.505.962.81.795.639 1.124 1.486 1.045 2.497l-.003.034c-.155 1.369-.925 2.618-2.434 3.643a.143.143 0 0 1-.02.014c-1.169.753-2.356 1.145-3.649 1.222h-.008c-1.122.058-2.026-.137-2.769-.583l-.051-.033a3.5 3.5 0 0 1-.75-.683Zm7.893-5.421c-.173-.246-.421-.455-.734-.644a3.816 3.816 0 0 0-2.231-.559 6.018 6.018 0 0 0-3.131 1.105c-1.186.871-1.803 1.864-1.89 2.975-.059.766.207 1.384.834 1.854l.096.069c.589.354 1.311.488 2.201.441 1.123-.066 2.153-.41 3.167-1.064 1.221-.83 1.877-1.819 2.002-2.928.037-.475-.065-.894-.314-1.249Z"/></svg>