<svg xmlns="http://www.w3.org/2000/svg" xml:space="preserve" style="fill-rule:evenodd;clip-rule:evenodd;stroke-linejoin:round;stroke-miterlimit:2" viewBox="0 0 528 360"><path d="M16.685 266.803s36.044-23.596 57.324-45.78c5.095-5.312 9.329-10.497 11.805-15.235 1.192-2.283 2.004-4.36 1.925-6.247-.078-1.865-1.68-3.628-3.672-5.682-3.058-3.154-7.347-6.362-12.301-9.552-24.832-15.994-65.74-30.902-65.74-30.902a6.535 6.535 0 0 1 2.324-12.671s43.252.569 72.949-5.212c7.104-1.383 13.392-3.098 17.931-5.368 2.014-1.007 3.656-1.98 4.467-3.303 3.793-6.183 2.143-15.389-1.019-25.274-8.677-27.123-31.682-58.449-31.682-58.449a6.534 6.534 0 0 1 9.409-8.918s33.637 27.543 59.348 42.37c6.189 3.57 11.867 6.397 16.412 7.753 1.742.52 3.149 1.005 4.19.686.287-.087.423-.418.649-.713.503-.658.947-1.464 1.367-2.377 1.411-3.068 2.442-7.131 3.258-11.722 4.223-23.76 2.115-60.573 2.115-60.573a6.533 6.533 0 0 1 11.867-4.127s25.362 36.076 46.775 56.758c5.091 4.917 9.898 8.947 14.042 11.175 1.511.813 2.747 1.539 3.841 1.37 2.331-.36 4.474-2.033 6.617-4.138 2.896-2.845 5.594-6.582 8.048-10.557 7.873-12.752 13.161-27.992 13.161-27.992a6.535 6.535 0 0 1 12.276-.189s6.495 17.018 16.046 30.527c2.956 4.181 6.194 8.031 9.66 10.783 2.595 2.061 5.238 3.557 8.037 3.491 9.806-.23 22.018-5.514 34.422-12.49 30.855-17.356 62.351-45.826 62.351-45.826a6.534 6.534 0 0 1 10.425 7.329s-14.425 35.048-17.661 62.594c-.646 5.501-.846 10.68-.303 15.148.426 3.508 1.222 6.524 2.95 8.607 1.358 1.638 3.628 2.943 6.423 4.195 5.419 2.427 12.622 4.289 20.633 5.781 32.877 6.121 78.851 5.661 78.851 5.661a6.534 6.534 0 0 1 1.992 12.776s-37.637 11.616-61.843 24.268c-5.776 3.02-10.758 6.057-14.081 9.034-1.316 1.179-2.411 2.165-2.725 3.259-.359 1.249.426 2.688 1.28 4.407 1.529 3.077 3.991 6.447 6.958 9.95 15.237 17.99 43.347 38.571 43.347 38.571a6.535 6.535 0 0 1-5.143 11.676s-47.848-9.823-73.441-.285c-2.499.931-4.458 3.327-6.303 6.24-2.453 3.871-4.467 8.712-6.153 13.776-5.377 16.145-7.328 34.552-7.328 34.552a6.535 6.535 0 0 1-10.464 4.502s-25.877-19.804-47.307-29.169c-4.235-1.85-8.272-3.287-11.853-3.982-2.493-.484-4.666-.729-6.32-.027-1.774.753-3.351 2.652-5.05 5.026-2.33 3.256-4.567 7.424-6.703 12.063-10.624 23.077-18.431 57.351-18.431 57.351a6.534 6.534 0 0 1-12.53.722s-8.852-25.085-22.927-44.906c-4.455-6.273-9.424-12.023-14.85-16.12-4.643-3.505-9.58-5.804-14.835-5.621-2.319.081-5.062 1.129-8.172 2.672-5.819 2.886-12.526 7.571-19.543 13.152-28.512 22.678-61.627 59.985-61.627 59.985a6.534 6.534 0 0 1-11.392-4.936s2.799-30.064-1.454-52.244c-1.51-7.872-3.51-14.808-7.79-17.808-4.641-3.253-13.998-3.995-24.706-4.114-28.287-.312-65.418 6.2-65.418 6.2a6.534 6.534 0 0 1-4.708-11.901Z" style="fill:#fff"/><path d="M20.267 272.267s75-49.166 74-73c-.877-20.91-86-52-86-52s89.879 1.132 101-17c15.334-25-33-91-33-91s69.667 57 86 52c16.334-5 12-82 12-82s52.667 74.834 71 72c17.618-2.722 33-47 33-47s18.922 49.495 40 49c35.5-.833 101-60 101-60s-30.166 73.5-14 93c15.681 18.914 111 18 111 18s-78.166 24.167-83 41c-4.833 16.834 54 60 54 60s-50.166-10-77 0c-18.347 6.838-24 60-24 60s-54.333-41.5-72-34c-17.666 7.5-34 79-34 79s-25.5-72.166-59-71c-25.511.889-94 78-94 78s5.834-63.5-12-76c-17.833-12.5-95 1-95 1Z" style="fill:#ed1a45"/><path d="M20.267 272.267s75-49.166 74-73c-.877-20.91-86-52-86-52s89.879 1.132 101-17c15.334-25-33-91-33-91s69.667 57 86 52c16.334-5 12-82 12-82s52.667 74.834 71 72c17.618-2.722 33-47 33-47s18.922 49.495 40 49c35.5-.833 101-60 101-60s-30.166 73.5-14 93c15.681 18.914 111 18 111 18s-78.166 24.167-83 41c-4.833 16.834 54 60 54 60s-50.166-10-77 0c-18.347 6.838-24 60-24 60s-54.333-41.5-72-34c-17.666 7.5-34 79-34 79s-25.5-72.166-59-71c-25.511.889-94 78-94 78s5.834-63.5-12-76c-17.833-12.5-95 1-95 1Zm24.755-9.827c12.78-1.505 28.341-2.869 41.93-2.719 13.913.154 25.873 2.202 31.903 6.428 6.376 4.47 10.759 14.144 13.007 25.87 2.38 12.41 2.714 27.13 2.492 38.338 12.483-13.227 32.929-33.995 51.468-48.741 13.715-10.909 26.749-18.3 35.228-18.595 11.73-.408 22.855 6.443 32.353 16.856 10.88 11.929 19.727 28.447 25.472 40.857 3.464-12.34 8.601-28.721 14.58-41.709 3.046-6.616 6.339-12.384 9.701-16.488 2.807-3.426 5.774-5.794 8.669-7.023 2.988-1.268 6.704-1.694 10.959-1.194 5.039.593 11.024 2.501 17.329 5.257 14.786 6.461 31.592 17.609 41.454 24.552 1.629-9.62 4.685-24.061 9.71-35.416 4.201-9.492 10.026-16.775 16.808-19.302 15.936-5.939 39.754-5.211 57.333-3.478-9.097-7.621-19.767-17.246-27.387-26.243-4.539-5.358-8.02-10.564-9.784-15.064-1.628-4.153-1.893-7.928-.987-11.084.835-2.908 2.984-6.118 6.484-9.253 3.953-3.541 9.817-7.249 16.688-10.84 9.468-4.95 20.921-9.751 31.505-13.809-14.851-.783-32.166-2.252-46.922-4.999-16.129-3.003-29.259-7.992-34.559-14.385-5.666-6.834-7.166-19.237-5.501-33.405 1.703-14.499 6.33-30.975 10.534-43.833-12.386 9.917-29.633 22.777-46.686 32.369-14.494 8.153-28.931 13.86-40.389 14.129-7.919.185-15.887-4.742-22.752-12.461-6.983-7.85-12.982-18.491-17.134-26.904-3.351 7.399-7.995 16.425-13.381 23.537-5.656 7.469-12.323 12.736-18.925 13.756-3.263.504-7.34-.321-11.847-2.743-4.953-2.663-10.787-7.364-16.871-13.241-12.726-12.292-26.815-29.839-36.484-42.524.05 13.13-.449 30.255-2.804 43.508-1.265 7.118-3.118 13.198-5.518 17.317-2.343 4.02-5.34 6.484-8.601 7.483-2.844.87-6.824.761-11.589-.661-5.288-1.578-11.939-4.775-19.142-8.929-10.61-6.118-22.535-14.338-33.011-21.987 5.571 10.003 11.078 21.32 14.499 32.015 4.483 14.012 5.116 27.089-.259 35.853-1.836 2.993-5.091 5.774-9.646 8.053-5.377 2.689-12.79 4.844-21.208 6.482-13.998 2.725-30.903 4.098-45.17 4.785 13.098 5.761 28.344 13.121 40.118 20.704 7.151 4.606 13.062 9.351 16.749 13.85 3.256 3.971 4.921 7.947 5.074 11.596.159 3.793-.97 8.113-3.367 12.702-2.938 5.625-7.862 11.86-13.91 18.165-11.103 11.576-26.065 23.531-38.213 32.568Z"/><path d="M186.31 220.575c-.255.35-.516.701-.783 1.052-5.44 7.114-12.178 13.657-20.564 19.666-10.217 7.085-22.32 11.363-36.135 12.816-2.274.239-4.372.459-6.489.505 1.807-23.175 3.33-54.099 4.55-92.948l.639-25.881c3.267-.874 9.747-3.147 19.126-6.431 8.174-2.981 14.865-4.922 19.881-5.98 1.905-.377 3.829-.579 5.753-.781 14.514-1.526 22.236 2.966 23.145 13.302 1.719 14.671-5.83 30.317-22.473 46.918 11.294-1.894 18.27.555 20.772 7.541l.037.112c4.523-19.802 8.156-39.085 10.958-57.918l38.207-10.546c-1.539 23.474-.648 50.487 2.474 80.961a516.895 516.895 0 0 0 11.929-73.361l30.02-8.189.631 47.411 7.286-44.57 28.795-8.197c-.45 28.072.431 53.282 2.645 75.632.601 4.426 1.054 8.732 1.521 13.172l-25.623 7.319-1.309-56.455-10.178 63.649-14.051 3.517.472-79.633-10.973 71.622-25.855 6.392a559.797 559.797 0 0 0 1.517-5.635l-22.253 7.678.201-16.21-8.173 2.492-1.637 11.599-26.083 6.824a918.07 918.07 0 0 0 2.02-7.445Zm28.033-28.908 6.331-1.89.708-48.913-.135.014-6.904 50.789Zm-62.416 11.391-1.015 17.257c15.242-6.376 22.542-12.624 21.724-18.726-.221-2.099-2.255-2.946-6.102-2.541-3.323.349-8.302 1.756-14.607 4.01Zm4.599-45.392-1.483 11.118-1.116 11.256c7.511-5.917 12.676-12.294 15.493-19.132.552-1.473.773-2.734.856-3.627-.202-1.923-1.693-2.65-4.666-2.338-2.273.239-5.191 1.076-9.084 2.723Zm228.026 22.836c3.55-.205 6.693.682 9.295 2.331 3.229 1.858 4.626 4.537 4.365 7.889-.521 4.618-3.252 8.742-8.34 12.201-4.228 2.722-8.516 4.155-13.196 4.432-3.709.193-6.718-.363-9.173-1.839-2.896-1.993-4.134-4.659-3.873-8.012.361-4.63 2.932-8.766 7.873-12.397 3.909-2.747 8.369-4.327 13.049-4.605Zm-3.643-17.15 28.228-75.703 31.189 7.892c-9.632 14.348-16.62 25.69-21.271 33.84a315.14 315.14 0 0 0-17.146 36.572l-21-2.601Zm-23.149-27.03c-.432 2.359-.581 4.823-.744 7.153l-.893 7.032 21.84-7.058.536 18.037a351.742 351.742 0 0 0-24.128 7.298c-.816 11.649-1.257 22.987-1.294 34.282l-21.203 7.943 5.317-93.066 42.81-10.758 1.009 23.837c-8.406 1.563-16.111 3.326-23.25 5.3Z" style="fill:#fbc608"/><path d="M121.311 259.476c-.308-.325-1.638-1.617-2-2a4.163 4.163 0 0 1-1.126-3.186c1.803-23.124 3.321-53.98 4.539-92.741l.639-25.867a4.167 4.167 0 0 1 3.088-3.923c3.214-.859 9.582-3.1 18.789-6.324 8.4-3.063 15.279-5.051 20.436-6.138l.05-.01c2.029-.402 4.077-.623 6.126-.838 10.228-1.075 17.506.771 21.985 4.741a16.283 16.283 0 0 1 1.675 1.72c.11.092.218.185.325.28 2.136 1.893 3.725 4.282 4.704 7.181l.065-.436a4.166 4.166 0 0 1 3.012-3.404l38.207-10.546a4.167 4.167 0 0 1 3.74.786c.492.4 1.734 1.783 2 2a4.167 4.167 0 0 1 1.527 3.503c-.825 12.579-.943 26.181-.389 40.797a512.366 512.366 0 0 0 4.484-35.84 4.167 4.167 0 0 1 3.053-3.649l30.02-8.189a4.167 4.167 0 0 1 3.604.692c.549.413 1.768 1.825 2 2 .332.25.621.545.86.873a4.173 4.173 0 0 1 1.409-.712l28.795-8.196a4.166 4.166 0 0 1 3.678.702c.535.411 1.76 1.816 2 2a4.168 4.168 0 0 1 1.629 3.372c-.235 14.677-.105 28.566.391 41.668l2.405-42.087a4.166 4.166 0 0 1 3.144-3.803l42.81-10.758a4.167 4.167 0 0 1 3.508.701c.555.415 1.773 1.831 2 2a4.168 4.168 0 0 1 1.671 3.163l1.009 23.837a4.167 4.167 0 0 1-3.401 4.273c-7.258 1.35-13.986 2.85-20.272 4.51a70.625 70.625 0 0 0-.191 2.178l13.373-4.321a4.169 4.169 0 0 1 3.683.559c.598.423 1.799 1.859 2 2 .442.523 1.103 1.033 1.405 1.711l21.463-57.562a4.166 4.166 0 0 1 4.926-2.584l31.189 7.893c1.215.307 4.48 3.533 4.869 4.548a4.167 4.167 0 0 1-.432 3.813c-9.547 14.222-16.478 25.467-21.094 33.554a310.98 310.98 0 0 0-16.904 36.061 4.166 4.166 0 0 1-4.39 2.61l-21-2.601a4.163 4.163 0 0 1-2.696-1.476 346.457 346.457 0 0 0-19.361 5.832c-.69 10.586-1.062 20.929-1.096 31.237a4.168 4.168 0 0 1-2.705 3.888l-21.204 7.943a4.167 4.167 0 0 1-3.932-.547c-.567-.418-1.779-1.837-2-2-.582-.752-1.39-1.494-1.602-2.474l-22.044 6.297a4.165 4.165 0 0 1-3.615-.652c-.832-.661-3.262-3.299-3.52-4.153l-1.383 8.65a4.165 4.165 0 0 1-3.102 3.383l-14.051 3.518a4.166 4.166 0 0 1-3.585-.765c-.518-.407-1.752-1.748-2-2-.76-.77-1.601-2.014-1.593-3.301l.041-7.036-.257 1.68a4.165 4.165 0 0 1-3.119 3.414l-25.856 6.391a4.166 4.166 0 0 1-3.984-1.137 192.888 192.888 0 0 0-1.919-1.919l-14.473 4.994a4.166 4.166 0 0 1-3.798-.561c-.582-.42-1.788-1.847-2-2a4.17 4.17 0 0 1-1.392-1.74 4.162 4.162 0 0 1-2.724 2.274l-26.082 6.824a4.168 4.168 0 0 1-2.966-.329c-4.336 4.562-9.297 8.879-14.989 12.958l-.052.037c-10.768 7.467-23.515 12.005-38.075 13.535-2.394.252-4.605.479-6.834.528a4.165 4.165 0 0 1-3.118-1.304Zm73.271-92.813c-2.273 3.976-5.086 8.006-8.445 12.086 2.076.507 3.895 1.279 5.461 2.3a787.23 787.23 0 0 0 2.984-14.386Zm-2.047-38.805c-3.564-4.535-10.315-6.309-20.247-5.265-1.924.202-3.85.392-5.753.781-5.022 1.027-11.707 2.999-19.881 5.98-9.379 3.284-15.859 5.557-19.126 6.431l-.639 25.881c-1.22 38.849-2.743 69.773-4.55 92.948a46.13 46.13 0 0 0 2.161-.101c1.404-.097 2.828-.247 4.328-.404 13.815-1.453 25.918-5.731 36.135-12.816 8.386-6.009 15.124-12.552 20.564-19.666.267-.351.528-.702.783-1.052a891.808 891.808 0 0 1-1.855 6.845l-.165.6 26.083-6.824 1.637-11.599 8.173-2.492-.201 16.21 22.253-7.678a517.238 517.238 0 0 1-1.517 5.635l25.855-6.392 10.973-71.622-.472 79.633 14.051-3.517 10.178-63.649 1.309 56.455 25.623-7.319c-.467-4.44-.92-8.746-1.521-13.172-2.146-21.663-3.04-46.013-2.683-73.052.011-.857.024-1.717.038-2.58l-28.795 8.197-7.286 44.57-.631-47.411-30.02 8.189a516.572 516.572 0 0 1-11.929 73.361c-3.007-29.357-3.945-55.501-2.634-78.365.05-.87.103-1.736.16-2.596l-38.207 10.546c-2.741 18.424-6.278 37.278-10.664 56.627l-.294 1.291a3.672 3.672 0 0 0-.037-.112c-.449-1.255-1.043-2.363-1.78-3.326-2.793-3.65-7.646-5.215-14.51-4.754a45.427 45.427 0 0 0-4.482.539c16.643-16.601 24.192-32.247 22.473-46.918-.287-3.263-1.253-5.944-2.898-8.037Zm28.139 61.919-6.331 1.89 6.424-47.26.472.479-.149-2.854.096-.704.148 2.807-.66 45.642Zm-64.353-11.706a71.647 71.647 0 0 1-2.394 1.969l1.116-11.256 1.483-11.118c3.893-1.647 6.811-2.484 9.084-2.723 2.831-.298 4.318.348 4.629 2.07.015.087.028.176.037.268a14.122 14.122 0 0 1-.856 3.627c-2.507 6.086-6.874 11.807-13.099 17.163Zm-3.236 41.313c-.706.31-1.43.621-2.173.931l1.015-17.257c6.305-2.254 11.284-3.661 14.607-4.01 3.631-.382 5.647.351 6.047 2.2.024.109.041.223.055.341.695 5.815-5.789 11.742-19.551 17.795ZM439.47 96.818l.856-1.277-31.189-7.892-28.228 75.703 21 2.601a315.14 315.14 0 0 1 17.146-36.572c4.512-7.907 11.224-18.817 20.415-32.563Zm-58.46 34.204-1.009-23.837-42.81 10.758-5.317 93.066 21.203-7.943c.037-11.295.478-22.633 1.294-34.282a351.742 351.742 0 0 1 24.128-7.298l-.536-18.037-21.84 7.058.893-7.032c.163-2.33.312-4.794.744-7.153 7.139-1.974 14.844-3.737 23.25-5.3Zm-16.992 77.084c-3.444-2.821-4.89-6.463-4.542-10.926.446-5.723 3.453-10.943 9.56-15.431l.071-.051c4.552-3.199 9.748-5.032 15.198-5.355l.006-.001c4.462-.258 8.411.867 11.692 2.924 1.674.974 3.005 2.103 4.01 3.374 3.312 2.666 4.681 6.195 4.353 10.406a3.296 3.296 0 0 1-.014.143c-.643 5.704-3.853 10.908-10.138 15.18l-.086.057c-4.87 3.135-9.815 4.769-15.205 5.089l-.03.001c-4.675.243-8.443-.569-11.537-2.429a4.334 4.334 0 0 1-.214-.138c-1.252-.861-2.291-1.809-3.124-2.843Zm32.885-22.589c-.72-1.026-1.751-1.896-3.056-2.684-2.636-1.593-5.745-2.539-9.295-2.331-4.68.274-9.14 1.858-13.049 4.605-4.941 3.631-7.512 7.767-7.873 12.397-.249 3.194.863 5.765 3.472 7.724.13.097.264.194.401.288 2.455 1.476 5.464 2.032 9.173 1.839 4.68-.277 8.968-1.71 13.196-4.432 5.088-3.459 7.819-7.583 8.34-12.201.154-1.98-.27-3.726-1.309-5.205Z"/></svg>
